<svg width="25" height="25" viewBox="0 0 25 25" fill="none" xmlns="http://www.w3.org/2000/svg">
<g clip-path="url(#clip0_914_3252)">
<path d="M24.5541 12.9131C24.5526 12.0974 24.485 11.2775 24.3424 10.4756L13.0237 10.5205L13.0322 15.1415L19.5139 15.1157C19.2477 16.6072 18.3859 17.929 17.122 18.7718L17.1275 21.7701L20.9945 21.7548C23.2614 19.6557 24.5609 16.564 24.5541 12.9131Z" fill="#4285F4"/>
<path d="M13.05 24.6833C16.2864 24.6704 19.0138 23.5969 20.999 21.7547L17.1265 18.7718C16.052 19.508 14.6638 19.928 13.0456 19.9344C9.91498 19.9468 7.25667 17.8453 6.29901 15.0095L2.30859 15.0253L2.31431 18.1163C4.35891 22.1603 8.51279 24.7013 13.05 24.6833Z" fill="#34A853"/>
<path d="M6.29454 15.0095C5.78912 13.5211 5.78614 11.9073 6.28604 10.4149L6.28032 7.32401L2.29431 7.33984C0.598599 10.7374 0.60599 14.7322 2.31425 18.1162L6.29454 15.0095Z" fill="#FBBC04"/>
<path d="M13.0142 5.4321C14.7249 5.39885 16.3796 6.03604 17.6208 7.21282L21.0405 3.77317C18.8674 1.74468 15.986 0.636144 13.0054 0.683257C8.46823 0.701276 4.32381 3.27516 2.29422 7.33983L6.28595 10.4149C7.22868 7.56716 9.88358 5.44453 13.0142 5.4321Z" fill="#EA4335"/>
</g>
<defs>
<clipPath id="clip0_914_3252">
<rect width="24" height="24" fill="white" transform="matrix(0.999992 -0.00397149 0.00185017 0.999998 0.765625 0.731079)"/>
</clipPath>
</defs>
</svg>
